HIERARCHY
ROOT Hips
{
	OFFSET 0.000000 0.000000 0.000000
	CHANNELS 6 Xposition Yposition Zposition Zrotation Yrotation Xrotation 
	JOINT LHipJoint
	{
		OFFSET 0.000000 0.000000 0.000000
		CHANNELS 3 Zrotation Yrotation Xrotation
		JOINT LeftUpLeg
		{
			OFFSET 1.363060 -1.794630 0.839290
			CHANNELS 3 Zrotation Yrotation Xrotation
			JOINT LeftLeg
			{
				OFFSET 2.448110 -6.726130 0.000000
				CHANNELS 3 Zrotation Yrotation Xrotation
				JOINT LeftFoot
				{
					OFFSET 2.562200 -7.039590 0.000000
					CHANNELS 3 Zrotation Yrotation Xrotation
					JOINT LeftToeBase
					{
						OFFSET 0.157640 -0.433110 2.322550
						CHANNELS 3 Zrotation Yrotation Xrotation
						End Site
						{
							OFFSET 0.000000 0.000000 0.000000
						}
					}
				}
			}
		}
	}
	JOINT RHipJoint
	{
		OFFSET 0.000000 0.000000 0.000000
		CHANNELS 3 Zrotation Yrotation Xrotation
		JOINT RightUpLeg
		{
			OFFSET -1.305520 -1.794630 0.839290
			CHANNELS 3 Zrotation Yrotation Xrotation
			JOINT RightLeg
			{
				OFFSET -2.542530 -6.985550 0.000000
				CHANNELS 3 Zrotation Yrotation Xrotation
				JOINT RightFoot
				{
					OFFSET -2.568260 -7.056230 0.000000
					CHANNELS 3 Zrotation Yrotation Xrotation
					JOINT RightToeBase
					{
						OFFSET -0.164730 -0.452590 2.363150
						CHANNELS 3 Zrotation Yrotation Xrotation
						End Site
						{
							OFFSET 0.000000 0.000000 0.000000
						}
					}
				}
			}
		}
	}
	JOINT LowerBack
	{
		OFFSET 0.000000 0.000000 0.000000
		CHANNELS 3 Zrotation Yrotation Xrotation
		JOINT Spine
		{
			OFFSET 0.028270 2.035590 -0.193380
			CHANNELS 3 Zrotation Yrotation Xrotation
			JOINT Spine1
			{
				OFFSET 0.056720 2.048850 -0.042750
				CHANNELS 3 Zrotation Yrotation Xrotation
				JOINT Neck
				{
					OFFSET 0.000000 0.000000 0.000000
					CHANNELS 3 Zrotation Yrotation Xrotation
					JOINT Neck1
					{
						OFFSET -0.054170 1.746240 0.172020
						CHANNELS 3 Zrotation Yrotation Xrotation
						JOINT Head
						{
							OFFSET 0.104070 1.761360 -0.123970
							CHANNELS 3 Zrotation Yrotation Xrotation
							End Site
							{
								OFFSET 0.000000 0.000000 0.000000
							}
						}
					}
				}
				JOINT LeftShoulder
				{
					OFFSET 0.000000 0.000000 0.000000
					CHANNELS 3 Zrotation Yrotation Xrotation
					JOINT LeftArm
					{
						OFFSET 3.362410 1.200890 -0.311210
						CHANNELS 3 Zrotation Yrotation Xrotation
						JOINT LeftForeArm
						{
							OFFSET 4.983000 -0.000000 -0.000000
							CHANNELS 3 Zrotation Yrotation Xrotation
							JOINT LeftHand
							{
								OFFSET 3.483560 -0.000000 -0.000000
								CHANNELS 3 Zrotation Yrotation Xrotation
								JOINT LeftFingerBase
								{
									OFFSET 0.000000 0.000000 0.000000
									CHANNELS 3 Zrotation Yrotation Xrotation
									JOINT LeftHandIndex1
									{
										OFFSET 0.715260 -0.000000 -0.000000
										CHANNELS 3 Zrotation Yrotation Xrotation
										End Site
										{
											OFFSET 0.000000 0.000000 0.000000
										}
									}
								}
								JOINT LThumb
								{
									OFFSET 0.000000 0.000000 0.000000
									CHANNELS 3 Zrotation Yrotation Xrotation
									End Site
									{
										OFFSET 0.000000 0.000000 0.000000
									}
								}
							}
						}
					}
				}
				JOINT RightShoulder
				{
					OFFSET 0.000000 0.000000 0.000000
					CHANNELS 3 Zrotation Yrotation Xrotation
					JOINT RightArm
					{
						OFFSET -3.136600 1.374050 -0.404650
						CHANNELS 3 Zrotation Yrotation Xrotation
						JOINT RightForeArm
						{
							OFFSET -5.241900 -0.000000 -0.000000
							CHANNELS 3 Zrotation Yrotation Xrotation
							JOINT RightHand
							{
								OFFSET -3.444170 -0.000000 -0.000000
								CHANNELS 3 Zrotation Yrotation Xrotation
								JOINT RightFingerBase
								{
									OFFSET 0.000000 0.000000 0.000000
									CHANNELS 3 Zrotation Yrotation Xrotation
									JOINT RightHandIndex1
									{
										OFFSET -0.622530 -0.000000 -0.000000
										CHANNELS 3 Zrotation Yrotation Xrotation
										End Site
										{
											OFFSET 0.000000 0.000000 0.000000
										}
									}
								}
								JOINT RThumb
								{
									OFFSET 0.000000 0.000000 0.000000
									CHANNELS 3 Zrotation Yrotation Xrotation
									End Site
									{
										OFFSET 0.000000 0.000000 0.000000
									}
								}
							}
						}
					}
				}
			}
		}
	}
}
MOTION
Frames: 8
Frame Time: 0.008333
5.092312 16.719602 -5.572209 -175.742695 29.379685 -177.761488 -11.540161 4.819299 1.009951 -9.921551 0.569603 18.300373 -1.126418 2.519101 23.120692 -0.097333 -6.170876 10.629807 -1.736900 0.000000 -54.854001 7.859480 -1.215779 1.785163 11.437758 2.608752 -25.775173 2.496321 -1.654946 25.205257 0.258033 2.577101 0.503304 0.063400 0.000001 -46.037001 5.539112 -4.407037 -4.382199 0.914358 -4.975802 -3.054937 -5.320568 -4.920289 2.383640 8.553310 -20.653755 -8.104770 -3.090311 -0.237880 -0.081680 0.000000 0.000000 0.000000 1.830625 10.604039 -1.675100 -71.312449 -19.978750 17.694506 -1.994794 -54.923165 -0.004040 1.806306 -0.736980 -0.015003 -0.087567 0.271550 0.000000 0.000000 0.000000 0.000000 0.000000 0.000000 0.000000 15.504793 -19.559728 -0.527100 74.171689 -14.428385 -5.197604 4.327697 23.791780 0.000321 7.499784 0.959140 0.061876 0.068687 0.009015 -0.000000 0.000000 0.000000 0.000000 0.000000 0.000000 0.000000 
5.182299 16.727101 -5.714286 -175.719410 28.534606 -177.941248 -11.694627 4.930528 1.007136 -8.959260 1.094503 17.579256 -0.967998 2.636153 24.892322 -0.069318 -7.331457 12.494656 -2.318400 -0.000000 -54.838900 7.886975 -1.291937 1.700752 11.423814 2.186431 -25.385727 2.410199 -1.722212 26.118342 0.165779 2.079491 0.070868 -0.009200 -0.000001 -43.814001 5.691159 -4.390206 -4.402643 0.944242 -4.975393 -3.071295 -5.310390 -4.923875 2.356116 8.647678 -20.655974 -8.141931 -3.092244 -0.237919 -0.091067 0.000000 0.000000 0.000000 1.735451 10.575388 -1.659087 -71.978017 -19.296909 17.616331 -2.049328 -53.730788 -0.004180 1.910982 -0.841131 -0.017634 -0.089187 0.264503 0.000000 0.000000 0.000000 0.000000 0.000000 0.000000 0.000000 15.638539 -19.554052 -0.547818 73.651571 -14.183348 -5.471364 4.327742 23.629484 0.000669 7.259571 1.039152 0.064983 0.070777 0.007732 -0.000000 0.000000 0.000000 0.000000 0.000000 0.000000 0.000000 
5.269985 16.735862 -5.854034 -175.657735 27.689475 -178.101151 -11.863228 5.032536 0.990027 -7.888432 1.718660 16.696748 -0.799415 2.740253 26.825724 -0.014312 -8.521143 14.391871 -2.987900 0.000000 -53.991699 7.901282 -1.368653 1.610180 11.475529 1.727286 -24.908543 2.347081 -1.766915 26.859350 0.060071 1.509124 -0.521827 -0.087000 0.000000 -41.431800 5.858944 -4.370460 -4.398617 0.974481 -4.972596 -3.083433 -5.309130 -4.924865 2.329410 8.758949 -20.619254 -8.183573 -3.094334 -0.237880 -0.101703 0.000000 0.000000 0.000000 1.670143 10.559240 -1.635449 -72.648580 -18.615220 17.496781 -2.104194 -52.418436 -0.004504 2.066460 -0.943612 -0.020971 -0.091303 0.256928 0.000000 0.000000 0.000000 0.000000 0.000000 0.000000 0.000000 15.783640 -19.510390 -0.565296 73.153306 -13.881463 -5.845305 4.328755 23.410303 0.001063 6.996633 1.127498 0.067991 0.073043 0.006184 -0.000000 0.000000 0.000000 0.000000 0.000000 0.000000 0.000000 
5.355547 16.745462 -5.990999 -175.574091 26.844260 -178.245533 -12.035246 5.119213 0.961716 -6.770598 2.391704 15.684979 -0.629220 2.829645 28.885058 0.066849 -9.633752 16.240276 -3.696900 0.000000 -52.468600 7.904998 -1.443188 1.515163 11.572828 1.246950 -24.351606 2.305461 -1.791252 27.435436 -0.053943 0.907945 -1.254714 -0.157700 0.000000 -38.987200 6.029757 -4.348019 -4.372444 1.003108 -4.966372 -3.091595 -5.313045 -4.922413 2.303182 8.880481 -20.561250 -8.229464 -3.095092 -0.237659 -0.113406 0.000000 0.000000 0.000000 1.639567 10.525161 -1.605920 -73.312344 -17.909759 17.307747 -2.156525 -51.011961 -0.004970 2.268224 -1.047081 -0.025115 -0.093628 0.248866 0.000000 0.000000 0.000000 0.000000 0.000000 0.000000 0.000000 15.926934 -19.448119 -0.576221 72.683674 -13.510940 -6.289714 4.329742 23.138093 0.001466 6.709681 1.208672 0.069999 0.075497 0.004464 -0.000000 0.000000 0.000000 0.000000 0.000000 0.000000 0.000000 
5.438969 16.755675 -6.124997 -175.474012 25.996842 -178.373269 -12.207343 5.187194 0.921444 -5.632027 3.099173 14.545252 -0.459548 2.905782 31.064420 0.173420 -10.560873 18.018906 -4.390800 -0.000000 -50.407300 7.898325 -1.514414 1.420748 11.705145 0.773524 -23.722020 2.282945 -1.797096 27.852757 -0.173464 0.298212 -2.095422 -0.213700 -0.000000 -36.548400 6.201903 -4.323188 -4.327871 1.029931 -4.956925 -3.096134 -5.321830 -4.916706 2.278457 9.007183 -20.478005 -8.278505 -3.094567 -0.237269 -0.125898 0.000000 0.000000 0.000000 1.633416 10.479688 -1.568511 -73.956305 -17.199092 17.062037 -2.206784 -49.512905 -0.005538 2.512872 -1.149538 -0.030165 -0.096169 0.240318 0.000000 0.000000 0.000000 0.000000 0.000000 0.000000 0.000000 16.062944 -19.362600 -0.581433 72.246848 -13.080045 -6.790289 4.330233 22.823836 0.001883 6.401959 1.288564 0.071308 0.078081 0.002560 -0.000000 0.000000 0.000000 0.000000 0.000000 0.000000 0.000000 
5.520233 16.766247 -6.255966 -175.367922 25.144861 -178.486071 -12.374232 5.233369 0.870225 -4.512717 3.814653 13.292355 -0.293587 2.971049 33.341354 0.301435 -11.186613 19.689665 -4.995500 0.000000 -48.039300 7.883291 -1.580881 1.329780 11.856986 0.323486 -23.032244 2.275444 -1.787074 28.127221 -0.295705 -0.300540 -3.005086 -0.250000 0.000000 -34.211400 6.369802 -4.295982 -4.268229 1.054084 -4.943829 -3.097396 -5.334116 -4.907355 2.255708 9.132971 -20.370330 -8.328891 -3.092731 -0.236730 -0.138701 0.000000 0.000000 0.000000 1.643468 10.421627 -1.522394 -74.569491 -16.492075 16.765778 -2.255070 -47.927580 -0.006156 2.792990 -1.248891 -0.035921 -0.098839 0.231277 0.000000 0.000000 0.000000 0.000000 0.000000 0.000000 0.000000 16.185107 -19.254210 -0.581377 71.844858 -12.597022 -7.325665 4.329551 22.483185 0.002306 6.078204 1.367895 0.071817 0.080733 0.000495 -0.000000 0.000000 0.000000 0.000000 0.000000 0.000000 0.000000 
5.599303 16.777006 -6.383888 -175.267292 24.286581 -178.587890 -12.530727 5.255622 0.809822 -3.454098 4.511280 11.945904 -0.133404 3.028612 35.686503 0.446172 -11.405555 21.220436 -5.431700 0.000000 -45.718300 7.863191 -1.641303 1.243834 12.011406 -0.093937 -22.296876 2.277706 -1.764371 28.280212 -0.418400 -0.876893 -3.939342 -0.265001 0.000000 -32.102200 6.526042 -4.265990 -4.196373 1.074162 -4.926126 -3.095663 -5.349051 -4.893404 2.235061 9.252966 -20.236579 -8.377979 -3.090201 -0.236120 -0.151141 0.000000 0.000000 0.000000 1.661904 10.353006 -1.467073 -75.143595 -15.800342 16.429806 -2.301887 -46.259285 -0.006770 3.099264 -1.342150 -0.042280 -0.101551 0.221731 0.000000 0.000000 0.000000 0.000000 0.000000 0.000000 0.000000 16.290973 -19.120245 -0.577272 71.477382 -12.075911 -7.875223 4.327002 22.137308 0.002724 5.746130 1.446297 0.071826 0.083365 -0.001699 0.000000 0.000000 0.000000 0.000000 0.000000 0.000000 0.000000 
5.676124 16.787873 -6.508907 -175.181559 23.421139 -178.682334 -12.673526 5.253243 0.741650 -2.487884 5.171061 10.522343 0.020054 3.081956 38.074939 0.602739 -11.136733 22.564454 -5.622100 0.000000 -43.610600 7.841152 -1.694851 1.163732 12.153763 -0.474978 -21.530363 2.284681 -1.732022 28.334320 -0.540114 -1.427786 -4.860130 -0.260500 -0.000000 -30.291700 6.665417 -4.232739 -4.114748 1.089576 -4.902953 -3.091165 -5.364346 -4.874058 2.217069 9.360729 -20.084129 -8.424040 -3.086731 -0.235443 -0.162779 0.000000 0.000000 0.000000 1.679911 10.271742 -1.403238 -75.673058 -15.126400 16.055500 -2.347380 -44.516688 -0.007323 3.419554 -1.424819 -0.048943 -0.104149 0.211675 0.000000 0.000000 0.000000 0.000000 0.000000 0.000000 0.000000 16.374073 -18.967948 -0.569766 71.140174 -11.520212 -8.402382 4.322143 21.798652 0.003130 5.410493 1.524619 0.071335 0.085936 -0.003974 0.000000 0.000000 0.000000 0.000000 0.000000 0.000000 0.000000 
